<?xml version="1.0" encoding="iso-8859-1"?>
<!-- Generator: Adobe Illustrator 19.0.0, SVG Export Plug-In . SVG Version: 6.00 Build 0)  -->
<svg version="1.1" id="Capa_1" xmlns="http://www.w3.org/2000/svg" xmlns:xlink="http://www.w3.org/1999/xlink" x="0px" y="0px"
	 viewBox="0 0 512 512" style="enable-background:new 0 0 512 512;" xml:space="preserve">
<g>
	<path style="fill:#A5A5A4;" d="M503.322,512H164.881c-43.114-0.049-78.053-34.987-78.102-78.102v-26.034
		c0-4.793,3.885-8.678,8.678-8.678s8.678,3.885,8.678,8.678v26.034c0.039,33.533,27.213,60.707,60.746,60.746h338.441
		c4.793,0,8.678,3.885,8.678,8.678C512,508.115,508.115,512,503.322,512z"/>
	<g>
		<path style="fill:#F09372;" d="M52.068,60.746c9.585,0,17.356,7.771,17.356,17.356v112.814H34.712V78.102
			C34.712,68.516,42.482,60.746,52.068,60.746z"/>
		<path style="fill:#F09372;" d="M138.847,60.746c9.585,0,17.356,7.771,17.356,17.356v112.814h-34.712V78.102
			C121.492,68.516,129.262,60.746,138.847,60.746z"/>
	</g>
	<path style="fill:#D1D4D1;" d="M17.356,208.271h156.203v121.492c0,28.756-23.312,52.068-52.068,52.068H69.424
		c-28.756,0-52.068-23.312-52.068-52.068V208.271z"/>
	<g>
		<path style="fill:#BDC3C7;" d="M78.102,381.831h34.712v26.034c0,4.793-3.885,8.678-8.678,8.678H86.78
			c-4.793,0-8.678-3.885-8.678-8.678V381.831z"/>
		<path style="fill:#BDC3C7;" d="M8.678,173.559h173.559c4.793,0,8.678,3.885,8.678,8.678v17.356c0,4.793-3.885,8.678-8.678,8.678
			H8.678c-4.793,0-8.678-3.885-8.678-8.678v-17.356C0,177.445,3.885,173.559,8.678,173.559z"/>
	</g>
	<path style="fill:#A5A5A4;" d="M242.983,0h242.983c9.585,0,17.356,7.771,17.356,17.356v242.983c0,9.585-7.771,17.356-17.356,17.356
		H242.983c-9.585,0-17.356-7.771-17.356-17.356V17.356C225.627,7.771,233.398,0,242.983,0z"/>
	<path style="fill:#E6E7E8;" d="M451.254,138.847c-0.023,44.558-33.77,81.866-78.102,86.346c-2.864,0.26-5.727,0.434-8.678,0.434
		s-5.814-0.174-8.678-0.434c-44.343-4.458-78.101-41.779-78.101-86.346s33.758-81.888,78.101-86.346
		c2.864-0.26,5.727-0.434,8.678-0.434s5.814,0.174,8.678,0.434C417.485,56.981,451.231,94.29,451.254,138.847z"/>
	<g>
		<path style="fill:#95A5A5;" d="M373.153,52.502v25.6c0,4.793-3.885,8.678-8.678,8.678s-8.678-3.885-8.678-8.678v-25.6
			c2.864-0.26,5.727-0.434,8.678-0.434S370.288,52.241,373.153,52.502z"/>
		<path style="fill:#95A5A5;" d="M373.153,199.593v25.6c-2.864,0.26-5.727,0.434-8.678,0.434s-5.814-0.174-8.678-0.434v-25.6
			c0-4.793,3.885-8.678,8.678-8.678S373.153,194.801,373.153,199.593z"/>
	</g>
	<g>
		<circle style="fill:#FFFFFF;" cx="329.763" cy="138.847" r="17.356"/>
		<circle style="fill:#FFFFFF;" cx="399.186" cy="138.847" r="17.356"/>
	</g>
</g>
<g>
</g>
<g>
</g>
<g>
</g>
<g>
</g>
<g>
</g>
<g>
</g>
<g>
</g>
<g>
</g>
<g>
</g>
<g>
</g>
<g>
</g>
<g>
</g>
<g>
</g>
<g>
</g>
<g>
</g>
</svg>
