<?xml version="1.0" encoding="iso-8859-1"?>
<!-- Generator: Adobe Illustrator 17.1.0, SVG Export Plug-In . SVG Version: 6.00 Build 0)  -->
<!DOCTYPE svg PUBLIC "-//W3C//DTD SVG 1.1//EN" "http://www.w3.org/Graphics/SVG/1.1/DTD/svg11.dtd">
<svg version="1.1" id="Capa_1" xmlns="http://www.w3.org/2000/svg" xmlns:xlink="http://www.w3.org/1999/xlink" x="0px" y="0px"
	 viewBox="0 0 206.075 206.075" style="enable-background:new 0 0 206.075 206.075;" xml:space="preserve">
<path d="M119.657,133.642h9.097c-4.233,10.102-14.17,17.01-25.716,17.01c-15.383,0-27.898-12.516-27.898-27.898
	s12.516-27.898,27.898-27.898c10.673,0,20.014,5.897,24.703,14.859h-8.084c-4.143,0-7.5,3.357-7.5,7.5v8.928
	C112.157,130.284,115.514,133.642,119.657,133.642z M193.86,59.397v132.193c0,7.986-6.497,14.484-14.483,14.484H26.699
	c-7.986,0-14.483-6.498-14.483-14.484V59.397H193.86z M157.615,117.77c0-4.143-3.357-7.5-7.5-7.5h-6.026
	c-5.38-17.93-21.803-30.415-41.051-30.415c-23.654,0-42.898,19.244-42.898,42.898s19.244,42.898,42.898,42.898
	c20.097,0,37.019-13.621,41.646-32.565h5.431c4.143,0,7.5-3.357,7.5-7.5V117.77z M12.215,44.397V14.484
	C12.215,6.498,18.712,0,26.699,0h152.678c7.986,0,14.483,6.498,14.483,14.484v29.913H12.215z M75.014,23.73
	c0,4.143,3.357,7.5,7.5,7.5H93.53c4.143,0,7.5-3.357,7.5-7.5s-3.357-7.5-7.5-7.5H82.514C78.372,16.23,75.014,19.588,75.014,23.73z
	 M27.214,23.73c0,5.909,4.807,10.716,10.716,10.716S48.646,29.64,48.646,23.73S43.839,13.015,37.93,13.015
	S27.214,17.821,27.214,23.73z"/>
<g>
</g>
<g>
</g>
<g>
</g>
<g>
</g>
<g>
</g>
<g>
</g>
<g>
</g>
<g>
</g>
<g>
</g>
<g>
</g>
<g>
</g>
<g>
</g>
<g>
</g>
<g>
</g>
<g>
</g>
</svg>
