<svg height="512pt" viewBox="0 -69 512 512" width="512pt" xmlns="http://www.w3.org/2000/svg"><path d="m358.410156 155.832031v72.554688h128.351563v-100.601563c0-55.394531-44.992188-100.308594-100.5-100.308594h-239.742188v124.726563h33.589844c7.242187 0 13.839844-4.730469 16.730469-11.359375l13.941406-31.976562 62.617188 40.035156c2.929687 1.871094 6.492187 3.300781 9.960937 3.300781h71.402344c2.019531 0 3.648437 1.621094 3.648437 3.628906zm0 0"/><path d="m89.015625.265625c-15.09375 0-27.34375 12.15625-27.496094 27.214844h-31.519531v-12.480469c0-8.285156-6.714844-15-15-15s-15 6.714844-15 15v149.644531c0 8.285157 6.714844 15 15 15s15-6.714843 15-15v-12.445312h31.515625c.027344 15.164062 12.328125 27.445312 27.5 27.445312 15.1875 0 27.5-12.308593 27.5-27.496093v-124.386719c0-15.1875-12.3125-27.496094-27.5-27.496094zm0 0"/><path d="m497 343.003906h-10.238281v-29.820312c14.125-1.125 25.238281-12.945313 25.238281-27.359375 0-15.15625-12.289062-27.441407-27.449219-27.441407h-124.839843c-15.160157 0-27.449219 12.285157-27.449219 27.441407 0 14.722656 11.589843 26.738281 26.144531 27.414062v29.765625h-11.144531c-8.285157 0-15 6.714844-15 15 0 8.28125 6.714843 14.996094 15 14.996094h149.738281c8.285156 0 15-6.714844 15-14.996094 0-8.285156-6.714844-15-15-15zm0 0"/><path d="m219.015625 185.195312c-8.261719 12.371094-21.035156 32.355469-30.617187 51.285157-7.433594 14.683593-12.949219 28.730469-12.949219 38.09375 0 28.730469 23.242187 52.023437 51.90625 52.023437 28.667969 0 51.90625-23.292968 51.90625-52.023437 0-21.4375-28.898438-67.421875-43.570313-89.386719-3.976562-5.953125-12.699218-5.945312-16.675781.007812zm0 0"/></svg>