<?xml version="1.0" encoding="iso-8859-1"?>
<!-- Generator: Adobe Illustrator 19.0.0, SVG Export Plug-In . SVG Version: 6.00 Build 0)  -->
<svg version="1.1" id="Layer_1" xmlns="http://www.w3.org/2000/svg" xmlns:xlink="http://www.w3.org/1999/xlink" x="0px" y="0px"
	 viewBox="0 0 512 512" style="enable-background:new 0 0 512 512;" xml:space="preserve">
<path style="fill:#C8C6CD;" d="M322.835,129.92v82.577l-68.409-0.02v-79.957c0-16.977-7.459-32.345-19.527-43.473
	c-12.058-11.128-28.726-18.007-47.133-18.007c-36.814,0-66.66,27.526-66.66,61.48v79.898H52.697V129.92
	C52.697,58.171,113.167,0,187.766,0S322.835,58.171,322.835,129.92z"/>
<path style="fill:#AEADB3;" d="M322.835,129.92v82.577l-68.409-0.02v-79.957c0-16.977-7.459-32.345-19.527-43.473
	c-12.058-11.128-28.726-18.007-47.133-18.007V0C262.364,0,322.835,58.171,322.835,129.92z"/>
<rect x="0.025" y="197.419" style="fill:#FDC000;" width="375.491" height="314.581"/>
<rect x="187.761" y="197.419" style="fill:#D9A600;" width="187.751" height="314.581"/>
<rect x="187.761" y="310.781" style="fill:#C06100;" width="29.995" height="101.234"/>
<path style="fill:#AEADB3;" d="M511.941,359.022c-1.281-47.471-40.289-85.679-88.068-85.679c-34.011,0-64.362,19.281-79.023,49.083
	H187.766v78.016H344.85c14.661,29.802,45.012,49.083,79.023,49.083c48.579,0,88.102-39.511,88.102-88.091
	C511.975,360.635,511.964,359.823,511.941,359.022z M465.099,359.033c0,9.149-7.411,16.559-16.559,16.559
	c-9.149,0-16.57-7.411-16.57-16.559v-0.011c0.012-9.149,7.422-16.559,16.57-16.559s16.548,7.411,16.559,16.559V359.033z"/>
<path style="fill:#8B8892;" d="M511.975,361.435c0,48.579-39.523,88.091-88.102,88.091c-34.011,0-64.362-19.281-79.023-49.083
	H187.766v-41.421h244.204v0.011c0,9.149,7.422,16.559,16.57,16.559s16.559-7.411,16.559-16.559v-0.011h46.842
	C511.964,359.823,511.975,360.635,511.975,361.435z"/>
<g>
</g>
<g>
</g>
<g>
</g>
<g>
</g>
<g>
</g>
<g>
</g>
<g>
</g>
<g>
</g>
<g>
</g>
<g>
</g>
<g>
</g>
<g>
</g>
<g>
</g>
<g>
</g>
<g>
</g>
</svg>
