<?xml version="1.0" encoding="iso-8859-1"?>
<!-- Generator: Adobe Illustrator 19.0.0, SVG Export Plug-In . SVG Version: 6.00 Build 0)  -->
<svg version="1.1" id="Layer_1" xmlns="http://www.w3.org/2000/svg" xmlns:xlink="http://www.w3.org/1999/xlink" x="0px" y="0px"
	 viewBox="0 0 503.614 503.614" style="enable-background:new 0 0 503.614 503.614;" xml:space="preserve">
<g>
	<g>
		<g>
			<path d="M372.482,217.744l41.548,41.539c0.008,0.008,0.008,0.017,0.017,0.025l89.566,89.566v-71.227l-95.517-95.517
				L372.482,217.744z"/>
			<path d="M200.368,472.946L99.471,372.057l-35.613,35.605l41.548,41.548l40.079,40.07l14.328,14.328h71.227l-30.661-30.653
				C200.377,472.955,200.368,472.955,200.368,472.946z"/>
			<path d="M253.779,122.778l100.73-100.73c0.05-0.059,0.067-0.134,0.126-0.193c0.067-0.067,0.151-0.084,0.218-0.143l21.705-21.705
				h-71.227l-87.166,87.157L253.779,122.778z"/>
			<polygon points="241.908,229.608 200.361,188.06 99.472,87.171 63.858,122.776 105.406,164.323 206.303,265.221 			"/>
			<polygon points="79.658,486.824 119.283,486.824 99.475,467.015 			"/>
			<path d="M415.869,0.004h-15.57L372.483,27.82l41.548,41.548c0.017,0.017,0.017,0.034,0.034,0.05l89.55,89.55V87.741
				L415.869,0.004z"/>
			<polygon points="105.406,259.283 206.303,360.18 241.917,324.567 200.361,283.019 99.472,182.13 63.858,217.744 			"/>
			<path d="M372.472,407.652l41.556,41.556l54.406,54.406h26.783c4.642,0,8.393-3.76,8.393-8.393v-27.656l-95.593-95.593
				L372.472,407.652z"/>
			<path d="M51.989,419.53L0,471.511v23.703c0,4.642,3.76,8.393,8.393,8.393h30.745l14.328-14.328l34.136-34.136L51.989,419.53z"/>
			<polygon points="0.005,281.597 0.005,352.815 46.051,306.769 87.599,265.221 51.986,229.608 			"/>
			<polygon points="87.602,360.184 51.989,324.571 0.008,376.56 0.008,447.778 46.055,401.724 			"/>
			<path d="M241.91,134.648L200.362,93.1c-0.562-0.562-0.906-1.251-1.276-1.922c-0.688-0.378-1.385-0.739-1.947-1.301L107.262,0
				h-71.21l170.244,170.261L241.91,134.648z"/>
			<path d="M12.313,0.004H8.402c-4.642,0-8.393,3.752-8.393,8.393v59.535l40.112-40.121L12.313,0.004z"/>
			<polygon points="87.602,75.299 51.989,39.686 0.008,91.666 0.008,162.893 46.055,116.838 			"/>
			<polygon points="87.602,170.258 51.989,134.645 0,186.626 0,257.861 46.055,211.806 			"/>
			<path d="M413.949,354.159l89.659,89.667v-71.218l-95.517-95.517l-35.613,35.613l41.447,41.438
				C413.933,354.15,413.941,354.15,413.949,354.159z"/>
			<polygon points="371.499,503.607 444.69,503.607 408.094,467.012 			"/>
			<polygon points="206.303,455.139 241.917,419.526 200.361,377.987 99.463,277.089 63.858,312.703 105.406,354.25 			"/>
			<path d="M503.611,8.398c0-4.642-3.752-8.393-8.393-8.393h-55.607l64,64V8.398z"/>
			<polygon points="414.027,164.32 503.611,253.903 503.611,182.702 408.085,87.176 372.48,122.781 413.944,164.245 			"/>
			<polygon points="396.149,360.107 360.611,324.569 259.713,425.467 218.174,467.006 253.779,502.619 354.668,401.73 			"/>
			<polygon points="360.611,419.529 276.525,503.614 347.76,503.614 396.224,455.142 			"/>
			<polygon points="281.597,0.002 131.002,0.002 206.299,75.299 			"/>
			<polygon points="259.713,330.508 218.174,372.047 253.779,407.66 396.224,265.224 360.611,229.61 			"/>
			<polygon points="360.615,134.648 259.717,235.545 218.17,277.084 253.783,312.698 354.672,211.817 396.153,170.185 			"/>
			<path d="M259.717,140.586l-41.548,41.539l35.605,35.613l100.898-100.898c0.008-0.008,0.025-0.008,0.025-0.017L396.22,75.31
				l-35.613-35.613L259.717,140.586z"/>
		</g>
	</g>
</g>
<g>
</g>
<g>
</g>
<g>
</g>
<g>
</g>
<g>
</g>
<g>
</g>
<g>
</g>
<g>
</g>
<g>
</g>
<g>
</g>
<g>
</g>
<g>
</g>
<g>
</g>
<g>
</g>
<g>
</g>
</svg>
