<svg height="512pt" viewBox="-31 0 512 512" width="512pt" xmlns="http://www.w3.org/2000/svg"><path d="m450 45v-30c0-8.289062-6.710938-15-15-15h-420c-8.289062 0-15 6.710938-15 15v30c0 8.289062 6.710938 15 15 15h420c8.289062 0 15-6.710938 15-15zm0 0"/><path d="m120 90h90v91h-90zm0 0"/><path d="m240 211h90v90h-90zm0 0"/><path d="m120 211h90v90h-90zm0 0"/><path d="m120 331h90v91h-90zm0 0"/><path d="m30 90h60v332h-60zm0 0"/><path d="m360 90h60v332h-60zm0 0"/><path d="m240 90h90v91h-90zm0 0"/><path d="m240 331h90v91h-90zm0 0"/><path d="m0 497c0 8.289062 6.710938 15 15 15h420c8.289062 0 15-6.710938 15-15v-30c0-8.289062-6.710938-15-15-15h-420c-8.289062 0-15 6.710938-15 15zm0 0"/></svg>