<svg height="512pt" viewBox="0 0 512 512" width="512pt" xmlns="http://www.w3.org/2000/svg"><path d="m390.351562 331h30v164.820312c0 8.28125-6.722656 15-15 15-8.28125 0-15-6.71875-15-15zm0 0"/><path d="m271.152344 208.765625c-.007813-111.070313-69.925782-184.828125-130.242188-207.785156-3.4375-1.308594-7.230468-1.308594-10.667968 0-59.09375 22.492187-130.242188 95.117187-130.242188 207.804687v37.066406c0 30.324219 22.707031 54.996094 50.621094 54.996094h70.4375v-74.996094c0-8.28125 6.722656-15 15-15 8.292968 0 15 6.71875 15 15v74.996094h69.527344c28.265624 0 50.664062-24.945312 50.621093-55.085937zm0 0"/><path d="m136.0625 330.835938c-24.808594 0-44.996094 20.1875-44.996094 44.996093v89.988281c0 24.8125 20.1875 44.996094 44.996094 44.996094s44.996094-20.183594 44.996094-44.996094v-89.988281c0-24.808593-20.1875-44.996093-44.996094-44.996093zm0 0"/><path d="m511 325.960938v171.039062c0 8.28125-6.71875 15-15 15s-15-6.71875-15-15v-171.039062c0-13.789063-9.25-25-20.621094-25-4.496094 0-98.023437 0-108.980468 0-11.457032 0-20.636719 11.457031-20.617188 25.039062l.058594 171c0 8.28125-6.71875 15-15 15s-15-6.710938-15-15l-.058594-170.96875c-.039062-30.007812 22.253906-55.070312 50.617188-55.070312h39.53125v-63.570313c-17.449219-6.191406-29.988282-22.859375-29.988282-42.410156v-119.980469c0-24.808594 20.179688-45 44.988282-45 24.808593 0 45 20.191406 45 45v119.980469c0 19.550781-12.539063 36.21875-30 42.410156v63.570313h39.449218c27.910156 0 50.621094 24.667968 50.621094 55zm0 0"/></svg>