<?xml version="1.0" encoding="iso-8859-1"?>
<!-- Generator: Adobe Illustrator 16.0.0, SVG Export Plug-In . SVG Version: 6.00 Build 0)  -->
<!DOCTYPE svg PUBLIC "-//W3C//DTD SVG 1.1//EN" "http://www.w3.org/Graphics/SVG/1.1/DTD/svg11.dtd">
<svg version="1.1" id="Capa_1" xmlns="http://www.w3.org/2000/svg" xmlns:xlink="http://www.w3.org/1999/xlink" x="0px" y="0px"
	 width="48.184px" height="48.184px" viewBox="0 0 48.184 48.184" style="enable-background:new 0 0 48.184 48.184;"
	 xml:space="preserve">
<g>
	<path d="M47.494,22.599L26.267,1.485c-1.196-1.191-3.155-1.191-4.352,0L0.689,22.599c-1.197,1.19-0.794,2.165,0.893,2.165h4.895
		v15.888c0,3.817,3.122,6.94,6.94,6.94h21.349c3.818,0,6.94-3.123,6.94-6.94V24.764h4.896C48.29,24.764,48.692,23.79,47.494,22.599z
		 M29.738,39.607h-11.29l2.52-12.142c-2.159-1.133-3.649-3.37-3.649-5.978c0-3.741,3.034-6.773,6.775-6.773s6.771,3.033,6.771,6.773
		c0,2.608-1.489,4.847-3.649,5.979L29.738,39.607z"/>
</g>
<g>
</g>
<g>
</g>
<g>
</g>
<g>
</g>
<g>
</g>
<g>
</g>
<g>
</g>
<g>
</g>
<g>
</g>
<g>
</g>
<g>
</g>
<g>
</g>
<g>
</g>
<g>
</g>
<g>
</g>
</svg>
