<svg height="480pt" viewBox="-32 0 480 480" width="480pt" xmlns="http://www.w3.org/2000/svg"><g fill="#9bc9ff"><path d="m24 136h128c8.835938 0 16-7.164062 16-16s-7.164062-16-16-16h-128c-8.808594.066406-15.933594 7.191406-16 16 .027344 8.824219 7.175781 15.972656 16 16zm0 0"/><path d="m24 8h128v96h-128zm0 0"/><path d="m248 360c.027344 8.824219 7.175781 15.972656 16 16h128c8.808594-.066406 15.933594-7.191406 16-16-.027344-8.824219-7.175781-15.972656-16-16h-128c-8.824219.027344-15.972656 7.175781-16 16zm0 0"/><path d="m208 320c8.824219-.027344 15.972656-7.175781 16-16v-128c-.066406-8.808594-7.191406-15.933594-16-16-8.824219.027344-15.972656 7.175781-16 16v128c.027344 8.824219 7.175781 15.972656 16 16zm0 0"/><path d="m264 376h128v96h-128zm0 0"/><path d="m248 304c8.835938 0 16 7.164062 16 16v24h128v-72c0-53.019531-42.980469-96-96-96h-72v128zm0 0"/><path d="m24 208c0 53.019531 42.980469 96 96 96h72v-128h-24c-8.835938 0-16-7.164062-16-16v-24h-128zm0 0"/></g><path d="m416 360c-.042969-10.132812-6.445312-19.148438-16-22.527344v-65.472656c-.066406-57.410156-46.589844-103.933594-104-104h-65.449219c-1.132812-3.34375-3.027343-6.378906-5.535156-8.863281-4.464844-4.59375-10.609375-7.171875-17.015625-7.136719-10.132812.042969-19.148438 6.445312-22.527344 16h-17.472656c-4.417969 0-8-3.582031-8-8v-17.472656c9.585938-3.339844 16.007812-12.378906 16.007812-22.527344s-6.421874-19.1875-16.007812-22.527344v-97.472656h-144v97.449219c-3.339844 1.136719-6.375 3.035156-8.855469 5.542969-4.601562 4.457031-7.1835935 10.601562-7.144531 17.007812.0429688 10.132812 6.445312 19.148438 16 22.527344v65.472656c.066406 57.410156 46.589844 103.933594 104 104h65.472656c3.339844 9.585938 12.378906 16.007812 22.527344 16.007812 10.152344 0 19.1875-6.421874 22.527344-16.007812h17.472656c4.417969 0 8 3.582031 8 8v17.472656c-9.585938 3.339844-16.007812 12.378906-16.007812 22.527344s6.421874 19.1875 16.007812 22.527344v97.472656h144v-97.449219c3.339844-1.136719 6.371094-3.035156 8.855469-5.542969 4.601562-4.457031 7.183593-10.601562 7.144531-17.007812zm-384-344h112v80h-112zm-13.542969 98.304688c1.453125-1.496094 3.457031-2.328126 5.542969-2.304688h128c4.417969 0 8 3.582031 8 8s-3.582031 8-8 8h-128c-4.417969 0-8-3.582031-8-8-.003906-2.15625.886719-4.21875 2.457031-5.695312zm13.542969 93.695312v-64h112v16c0 13.253906 10.746094 24 24 24h16v112h-64c-48.578125-.058594-87.941406-39.421875-88-88zm176 104c-4.417969 0-8-3.582031-8-8v-128c0-4.417969 3.582031-8 8-8 2.160156-.007812 4.222656.878906 5.703125 2.449219 1.484375 1.464843 2.3125 3.464843 2.296875 5.550781v128c0 4.417969-3.582031 8-8 8zm40-16h-16v-112h64c48.578125.058594 87.941406 39.421875 88 88v64h-112v-16c0-13.253906-10.746094-24-24-24zm136 168h-112v-80h112zm13.550781-98.304688c-1.457031 1.492188-3.464843 2.324219-5.550781 2.304688h-128c-4.417969 0-8-3.582031-8-8s3.582031-8 8-8h128c4.417969 0 8 3.582031 8 8 .003906 2.15625-.882812 4.214844-2.449219 5.695312zm0 0" fill="#1e81ce"/></svg>