<svg height="512pt" viewBox="0 0 512 512" width="512pt" xmlns="http://www.w3.org/2000/svg"><path d="m26.484375 0h459.03125c4.878906 0 8.828125 3.953125 8.828125 8.828125v432.550781h-476.6875v-432.550781c0-4.875 3.949219-8.828125 8.828125-8.828125zm0 0" fill="#e4c05c"/><path d="m476.691406 26.484375v388.414063c0 4.875-3.953125 8.824218-8.828125 8.824218h-423.726562c-4.875 0-8.828125-3.949218-8.828125-8.824218v-388.414063c0-4.878906 3.953125-8.828125 8.828125-8.828125h423.726562c4.875 0 8.828125 3.949219 8.828125 8.828125zm0 0" fill="#b19046"/><path d="m57.378906 35.308594h158.898438c2.4375 0 4.414062 1.976562 4.414062 4.414062v361.933594c0 2.4375-1.976562 4.414062-4.414062 4.414062h-158.898438c-2.4375 0-4.414062-1.976562-4.414062-4.414062v-361.933594c0-2.4375 1.976562-4.414062 4.414062-4.414062zm0 0" fill="#b0d3f0"/><path d="m295.722656 35.308594h158.898438c2.4375 0 4.414062 1.976562 4.414062 4.414062v361.933594c0 2.4375-1.976562 4.414062-4.414062 4.414062h-158.898438c-2.4375 0-4.414062-1.976562-4.414062-4.414062v-361.933594c0-2.4375 1.976562-4.414062 4.414062-4.414062zm0 0" fill="#b0d3f0"/><path d="m454.621094 414.898438h-158.898438c-7.3125 0-13.238281-5.929688-13.238281-13.242188v-361.933594c0-7.3125 5.925781-13.238281 13.238281-13.238281h158.898438c7.3125 0 13.242187 5.925781 13.242187 13.238281v361.933594c0 7.3125-5.929687 13.242188-13.242187 13.242188zm-154.484375-17.65625h150.070312v-353.105469h-150.070312zm0 0" fill="#e4c05c"/><path d="m326.621094 105.929688c-3.570313 0-6.789063-2.148438-8.152344-5.449219-1.367188-3.296875-.613281-7.09375 1.910156-9.617188l26.484375-26.484375c3.460938-3.34375 8.96875-3.296875 12.375.109375 3.402344 3.402344 3.453125 8.910157.105469 12.375l-26.480469 26.480469c-1.65625 1.65625-3.902343 2.585938-6.242187 2.585938zm0 0" fill="#fff"/><path d="m335.449219 150.070312c-3.570313-.003906-6.789063-2.152343-8.15625-5.449218-1.363281-3.300782-.609375-7.097656 1.914062-9.621094l70.621094-70.621094c3.464844-3.34375 8.96875-3.296875 12.375.109375 3.40625 3.402344 3.453125 8.910157.105469 12.375l-70.621094 70.621094c-1.652344 1.652344-3.898438 2.585937-6.238281 2.585937zm0 0" fill="#fff"/><path d="m159.78125 269.929688 7.140625-35.699219 59.46875-50.980469c3.488281-3.21875 3.804687-8.621094.714844-12.222656-3.085938-3.605469-8.46875-4.125-12.1875-1.175782l-40.742188 34.949219 19.757813-79.070312c.050781-.21875 0-.441407 0-.660157.589844-3.027343-.523438-6.128906-2.894532-8.097656-.179687-.148437-.292968-.332031-.476562-.476562l-.082031-.078125-55.136719-39.414063 22.289062-37.148437c2.507813-4.179688 1.152344-9.601563-3.027343-12.109375-4.179688-2.507813-9.601563-1.152344-12.109375 3.027344l-26.484375 44.136718c-2.367188 3.945313-1.304688 9.046875 2.4375 11.722656l39.386719 28.125h-65.90625l-32.722657-32.722656c-3.464843-3.347656-8.96875-3.296875-12.375.105469-3.40625 3.40625-3.453125 8.914063-.109375 12.375l33.46875 33.484375 25.464844 118.828125-25.835938 86.105469c-.648437 2.152344-.449218 4.46875.554688 6.476562l35.308594 70.621094c2.183594 4.363281 7.488281 6.128906 11.847656 3.945312 4.363281-2.179687 6.128906-7.484374 3.945312-11.84375l-33.738281-67.496093 24.25-80.84375 25.054688-10.019531-5.625 28.117187c-.679688 3.34375.628906 6.78125 3.363281 8.828125l70.621094 52.964844c3.898437 2.925781 9.433594 2.132812 12.359375-1.765625 2.925781-3.902344 2.132812-9.433594-1.765625-12.359375zm-38.621094-34.84375-21.964844-102.671876h74.882813l-22.640625 90.578126zm0 0" fill="#285680"/><path d="m512 476.691406v26.480469c0 4.875-3.953125 8.828125-8.828125 8.828125h-494.34375c-4.875 0-8.828125-3.953125-8.828125-8.828125v-26.480469zm0 0" fill="#e4c05c"/><path d="m512 476.691406h-512l17.65625-35.3125h476.6875zm0 0" fill="#b19046"/><path d="m52.964844 476.691406c0 4.875-3.953125 8.824219-8.828125 8.824219h-44.136719v-8.824219l4.414062-8.828125h39.722657c4.875 0 8.828125 3.949219 8.828125 8.828125zm0 0" fill="#f9eab0"/><path d="m512 476.691406v8.824219h-432.550781c-4.875 0-8.828125-3.949219-8.828125-8.824219 0-4.878906 3.953125-8.828125 8.828125-8.828125h428.136719zm0 0" fill="#f9eab0"/><path d="m216.277344 414.898438h-158.898438c-7.3125 0-13.242187-5.929688-13.242187-13.242188v-361.933594c0-7.3125 5.929687-13.238281 13.242187-13.238281h158.898438c7.3125 0 13.238281 5.925781 13.238281 13.238281v361.933594c0 7.3125-5.925781 13.242188-13.238281 13.242188zm-154.484375-17.65625h150.070312v-353.105469h-150.070312zm0 0" fill="#e4c05c"/></svg>